<svg width="640" height="640" viewBox="0 0 640 640" fill="none" xmlns="http://www.w3.org/2000/svg">
  <style>
    #background {
      fill: #0f0c05;
    }
    #text_news {
      fill: #ffffff;
    }
    #text_demo {
      fill: #d0cdc7;
    }
    @media (prefers-color-scheme: dark) {
      #background {
        fill: #fffcf5;
      }
      #text_news {
        fill: #000000;
      }
      #text_demo {
        fill: #38342a;
      }
    }
  </style>

  <g opacity="0.98">
    <rect width="640" height="640" rx="64" id="background" />
    <path
      d="M94.4 310.5V182.5H146.56C160.32 182.5 170.88 185.54 178.24 191.62C185.707 197.593 189.44 206.18 189.44 217.38C189.44 222.82 188 227.62 185.12 231.78C182.24 235.94 178.133 239.14 172.8 241.38V243.94C178.987 246.18 183.733 249.86 187.04 254.98C190.347 259.993 192 266.127 192 273.38C192 285.22 188.107 294.393 180.32 300.9C172.533 307.3 161.493 310.5 147.2 310.5H94.4ZM124.48 282.34H146.88C151.893 282.34 155.733 281.327 158.4 279.3C161.173 277.273 162.56 274.447 162.56 270.82C162.56 266.98 161.173 263.993 158.4 261.86C155.733 259.727 151.893 258.66 146.88 258.66H124.48V282.34ZM124.48 233.06H146.24C151.253 233.06 155.093 232.1 157.76 230.18C160.533 228.26 161.92 225.593 161.92 222.18C161.92 218.553 160.533 215.727 157.76 213.7C155.093 211.673 151.253 210.66 146.24 210.66H124.48V233.06ZM222.4 310.5V182.5H252.48V281.7H310.4V310.5H222.4ZM380 313.7C362.293 313.7 348.64 307.887 339.04 296.26C329.547 284.633 324.8 268.047 324.8 246.5C324.8 224.953 329.547 208.367 339.04 196.74C348.64 185.113 362.293 179.3 380 179.3C397.707 179.3 411.307 185.113 420.8 196.74C430.4 208.367 435.2 224.953 435.2 246.5C435.2 268.047 430.4 284.633 420.8 296.26C411.307 307.887 397.707 313.7 380 313.7ZM380 286.18C388.32 286.18 394.56 282.873 398.72 276.26C402.987 269.54 405.12 259.62 405.12 246.5C405.12 233.38 402.987 223.513 398.72 216.9C394.56 210.18 388.32 206.82 380 206.82C371.68 206.82 365.387 210.18 361.12 216.9C356.96 223.513 354.88 233.38 354.88 246.5C354.88 259.62 356.96 269.54 361.12 276.26C365.387 282.873 371.68 286.18 380 286.18ZM492.8 313.38C478.293 313.38 467.04 307.567 459.04 295.94C451.04 284.313 447.04 267.833 447.04 246.5C447.04 224.953 451.787 208.367 461.28 196.74C470.88 185.113 484.587 179.3 502.4 179.3C512.32 179.3 520.96 181.22 528.32 185.06C535.68 188.9 541.493 194.447 545.76 201.7C550.027 208.847 552.427 217.38 552.96 227.3H524.16C522.773 220.58 520.213 215.513 516.48 212.1C512.853 208.58 508.16 206.82 502.4 206.82C494.08 206.82 487.787 210.18 483.52 216.9C479.253 223.513 477.12 233.38 477.12 246.5C477.12 260.687 479.2 271.14 483.36 277.86C487.52 284.473 494.187 287.78 503.36 287.78C507.307 287.78 510.773 286.98 513.76 285.38C516.747 283.673 519.04 281.38 520.64 278.5C522.347 275.513 523.2 272.1 523.2 268.26H498.24V242.02H550.4V310.5H523.2V299.3H516.8C515.413 303.887 512.64 307.407 508.48 309.86C504.32 312.207 499.093 313.38 492.8 313.38Z"
      id="text_news"
    />
    <path
      d="M143.104 459.5V357.1H170.88C184.875 357.1 195.541 361.495 202.88 370.284C210.304 379.073 214.016 391.745 214.016 408.3C214.016 424.855 210.304 437.527 202.88 446.316C195.541 455.105 184.875 459.5 170.88 459.5H143.104ZM152.192 451.052H170.88C181.888 451.052 190.293 447.383 196.096 440.044C201.984 432.705 204.928 422.124 204.928 408.3C204.928 394.391 201.984 383.809 196.096 376.556C190.293 369.217 181.888 365.548 170.88 365.548H152.192V451.052ZM245.376 416.492H300.032L297.088 419.436C297.088 410.049 295.04 402.753 290.944 397.548C286.848 392.343 280.96 389.74 273.28 389.74C265.259 389.74 258.987 392.556 254.464 398.188C249.941 403.735 247.68 411.287 247.68 420.844C247.68 431.169 249.984 439.191 254.592 444.908C259.2 450.54 265.771 453.356 274.304 453.356C280.107 453.356 285.141 451.863 289.408 448.876C293.675 445.804 296.875 441.495 299.008 435.948H307.328C305.877 441.153 303.573 445.676 300.416 449.516C297.344 453.271 293.547 456.172 289.024 458.22C284.587 460.268 279.68 461.292 274.304 461.292C266.88 461.292 260.523 459.713 255.232 456.556C249.941 453.313 245.888 448.705 243.072 442.732C240.341 436.673 238.976 429.377 238.976 420.844C238.976 412.908 240.384 406.039 243.2 400.236C246.016 394.348 249.984 389.825 255.104 386.668C260.224 383.511 266.283 381.932 273.28 381.932C280.021 381.932 285.781 383.425 290.56 386.412C295.339 389.313 298.965 393.58 301.44 399.212C303.915 404.759 305.152 411.457 305.152 419.308C305.152 420.161 305.109 421.015 305.024 421.868C305.024 422.636 304.981 423.404 304.896 424.172H245.376V416.492ZM331.776 383.596H340.48V389.74H347.392L341.504 392.684C342.101 389.271 343.637 386.625 346.112 384.748C348.672 382.871 351.829 381.932 355.584 381.932C359.424 381.932 362.667 383.084 365.312 385.388C368.043 387.692 369.877 390.892 370.816 394.988L365.184 390.38H376.832L371.456 393.58C372.139 389.996 373.888 387.18 376.704 385.132C379.605 382.999 383.061 381.932 387.072 381.932C392.448 381.932 396.715 383.937 399.872 387.948C403.029 391.959 404.608 397.377 404.608 404.204V459.5H395.904V407.02C395.904 401.9 394.88 397.975 392.832 395.244C390.869 392.513 388.011 391.148 384.256 391.148C380.416 391.148 377.472 392.513 375.424 395.244C373.461 397.975 372.48 401.9 372.48 407.02V459.5H363.776V407.02C363.776 401.9 362.795 397.975 360.832 395.244C358.869 392.513 355.968 391.148 352.128 391.148C348.373 391.148 345.472 392.513 343.424 395.244C341.461 397.975 340.48 401.9 340.48 407.02V459.5H331.776V383.596ZM464 461.292C456.832 461.292 450.56 459.671 445.184 456.428C439.893 453.185 435.797 448.62 432.896 442.732C429.995 436.759 428.544 429.719 428.544 421.612C428.544 413.505 429.995 406.508 432.896 400.62C435.797 394.647 439.893 390.039 445.184 386.796C450.56 383.553 456.832 381.932 464 381.932C471.253 381.932 477.525 383.553 482.816 386.796C488.107 390.039 492.203 394.647 495.104 400.62C498.005 406.508 499.456 413.505 499.456 421.612C499.456 429.719 498.005 436.759 495.104 442.732C492.203 448.62 488.107 453.185 482.816 456.428C477.525 459.671 471.253 461.292 464 461.292ZM464 453.1C472.277 453.1 478.763 450.284 483.456 444.652C488.235 439.02 490.624 431.34 490.624 421.612C490.624 411.799 488.235 404.076 483.456 398.444C478.763 392.812 472.277 389.996 464 389.996C455.723 389.996 449.195 392.855 444.416 398.572C439.723 404.204 437.376 411.884 437.376 421.612C437.376 431.34 439.723 439.02 444.416 444.652C449.195 450.284 455.723 453.1 464 453.1Z"
      id="text_demo"
    />
  </g>
</svg>
